Patient4_TMGait_0pt5_01_left_28_GRF.mot
version=1
nRows=39
nColumns=19
inDegrees=no
endheader
time	F1x	F1y	F1z	M1x	M1y	M1z	F2x	F2y	F2z	M2x	M2y	M2z	EC1x	EC1y	EC1z	EC2x	EC2y	EC2z
37.4	36.4578	-0.65217	5.1208	-2.03	6.3308	0.92953	-33.6816	747.5662	-59.4998	299.45	69.8322	716.8332	-0.0592	0.0182	-0.0073	-0.0462	0.0165	0.9585
37.4131	24.3802	0.24904	3.4726	-1.6055	4.2554	1.3812	-31.8051	744.5842	-56.607	297.4538	66.3338	711.4572	-0.0592	0.0182	-0.0073	-0.0462	0.0165	0.9585
37.4263	14.2357	1.0303	2.0381	-1.2439	2.5285	1.7317	-29.8802	741.3594	-53.7415	295.4352	62.7892	705.5468	-0.0592	0.0182	-0.0073	-0.0462	0.0165	0.9585
37.4394	6.5645	1.6564	0.91962	-0.97285	1.234	1.9908	-28.0783	738.4731	-51.1548	293.6875	59.502	699.7465	-0.0592	0.0182	-0.0073	-0.0462	0.0165	0.9585
37.4526	1.2837	2.1284	0.12828	-0.79518	0.34753	2.1833	-26.5112	736.5388	-48.9836	292.4727	56.6497	694.6826	-0.0592	0.0182	-0.0073	-0.0462	0.0165	0.9585
37.4657	-1.9643	2.4367	-0.36782	-0.69376	-0.20102	2.2849	-25.2129	736.0891	-47.2624	291.9956	54.2867	690.8546	-0.0592	0.0182	-0.0073	-0.0462	0.0165	0.9585
37.4789	-3.6911	2.6009	-0.62704	-0.64608	-0.50545	2.3307	-24.1351	737.479	-45.9812	292.3787	52.3942	688.5576	-0.0592	0.0182	-0.0073	-0.0462	0.0165	0.9585
37.492	-4.3531	2.6046	-0.7173	-0.61649	-0.64284	2.2643	-23.1636	740.8032	-45.083	293.639	50.8846	687.8287	-0.0592	0.0182	-0.0073	-0.0462	0.0165	0.9585
37.5051	-4.3913	2.4329	-0.6951	-0.56739	-0.69349	2.062	-22.1744	745.846	-44.4934	295.6708	49.6477	688.4303	-0.0592	0.0182	-0.0073	-0.0462	0.0165	0.9585
37.5183	-4.1063	2.0359	-0.6142	-0.45793	-0.70043	1.6569	-21.0424	752.0626	-44.1193	298.2434	48.5528	689.8334	-0.0592	0.0182	-0.0073	-0.0462	0.0165	0.9585
37.5314	-3.7057	1.348	-0.49984	-0.24888	-0.70496	0.98005	-19.6754	758.6526	-43.8732	301.0255	47.4808	691.3161	-0.0592	0.0182	-0.0073	-0.0462	0.0165	0.9585
37.5446	-3.317	0.31027	-0.38236	0.090513	-0.71682	-0.029626	-18.0045	764.7061	-43.6767	303.6439	46.3288	692.0887	-0.0592	0.0182	-0.0073	-0.0462	0.0165	0.9585
37.5577	-2.9768	-1.1291	-0.26489	0.58163	-0.7411	-1.4469	-16.0116	769.3608	-43.4837	305.741	45.042	691.4407	-0.0592	0.0182	-0.0073	-0.0462	0.0165	0.9585
37.5709	-2.6898	-2.9401	-0.17295	1.2154	-0.74805	-3.2429	-13.7167	771.9236	-43.2734	307.0238	43.6116	688.8425	-0.0592	0.0182	-0.0073	-0.0462	0.0165	0.9585
37.584	-2.3713	-5.0005	-0.11567	1.9449	-0.69672	-5.3149	-11.1652	772.0507	-43.0369	307.3338	42.0502	684.0962	-0.0592	0.0182	-0.0073	-0.0462	0.0165	0.9585
37.5971	-1.9333	-6.9895	-0.11799	2.6514	-0.52825	-7.3387	-8.403	769.8726	-42.7722	306.6984	40.3737	677.4204	-0.0592	0.0182	-0.0073	-0.0462	0.0165	0.9585
37.6103	-1.2394	-8.3497	-0.20439	3.1274	-0.17017	-8.7643	-5.4444	765.917	-42.4845	305.3043	38.5942	669.3577	-0.0592	0.0182	-0.0073	-0.0462	0.0165	0.9585
37.6234	-0.15403	-8.1914	-0.41293	3.0477	0.46161	-8.6988	-2.2986	760.9378	-42.1703	303.4239	36.711	660.6472	-0.0592	0.0182	-0.0073	-0.0462	0.0165	0.9585
37.6366	1.4302	-5.2594	-0.78627	1.952	1.4441	-5.8901	1.065	755.6057	-41.831	301.2981	34.7219	651.9277	-0.0592	0.0182	-0.0073	-0.0462	0.0165	0.9585
37.6497	3.5696	2.0464	-1.3541	-0.74553	2.8184	1.2531	4.6394	750.2168	-41.4653	299.0217	32.635	643.5075	-0.0592	0.0182	-0.0073	-0.0462	0.0165	0.9585
37.6629	6.1838	15.5867	-2.1363	-5.7186	4.5649	14.6173	8.4032	744.47	-41.0981	296.4624	30.4894	635.1604	-0.0592	0.0182	-0.0073	-0.0462	0.0165	0.9585
37.676	9.028	37.1571	-3.0934	-13.6153	6.5427	36.0232	12.2911	737.5352	-40.7395	293.2909	28.3291	626.2016	-0.0592	0.0182	-0.0073	-0.0462	0.0165	0.9585
37.6891	11.5356	68.0063	-4.1266	-24.8777	8.4392	66.7784	16.163	728.2384	-40.3858	289.0574	26.2128	615.6523	-0.0592	0.0182	-0.0073	-0.0462	0.0165	0.9585
37.7023	12.7628	108.0147	-5.0148	-39.4426	9.6839	106.8255	19.8268	715.2903	-39.9863	283.2834	24.1782	602.4249	-0.0592	0.0182	-0.0073	-0.0462	0.0165	0.9585
37.7154	11.431	154.7058	-5.4062	-56.3857	9.458	153.7962	23.0343	697.577	-39.4544	275.5704	22.246	585.6003	-0.0592	0.0182	-0.0073	-0.0462	0.0165	0.9585
37.7286	6.7175	202.6179	-4.7771	-73.6833	6.942	202.3636	25.5765	674.4387	-38.6873	265.7114	20.406	564.6116	-0.0592	0.0182	-0.0073	-0.0462	0.0165	0.9585
37.7417	-0.28104	244.8868	-2.4856	-88.7996	1.9083	245.7065	27.3134	646.0472	-37.6459	253.8252	18.6778	539.5668	-0.0592	0.0182	-0.0073	-0.0462	0.0165	0.9585
37.7549	-7.8808	277.5571	1.0452	-100.3035	-4.5581	279.7397	28.2646	613.5902	-36.3787	240.4124	17.0937	511.3745	-0.0592	0.0182	-0.0073	-0.0462	0.0165	0.9585
37.768	-14.8413	301.0113	5.0401	-108.3569	-11.2155	304.7048	28.5826	578.898	-35.0603	226.2025	15.732	481.4696	-0.0592	0.0182	-0.0073	-0.0462	0.0165	0.9585
37.7811	-20.5267	317.8484	8.8748	-113.9416	-17.1909	323.1824	28.506	543.8074	-33.8002	211.9211	14.5904	451.3073	-0.0592	0.0182	-0.0073	-0.0462	0.0165	0.9585
37.7943	-24.8478	331.0715	12.1302	-118.1863	-22.0328	338.1278	28.2865	509.8174	-32.538	198.1627	13.537	422.0816	-0.0592	0.0182	-0.0073	-0.0462	0.0165	0.9585
37.8074	-28.1014	343.0267	14.6095	-121.9715	-25.6579	351.8328	28.0974	477.9555	-31.1017	185.3363	12.3752	394.6339	-0.0592	0.0182	-0.0073	-0.0462	0.0165	0.9585
37.8206	-30.5538	355.2296	16.3102	-125.865	-28.1788	365.6979	28.0697	448.714	-29.3567	173.6386	10.953	369.3656	-0.0592	0.0182	-0.0073	-0.0462	0.0165	0.9585
37.8337	-32.3663	368.7999	17.4633	-130.269	-29.894	380.6982	28.2259	422.1531	-27.2925	163.0836	9.2423	346.3599	-0.0592	0.0182	-0.0073	-0.0462	0.0165	0.9585
37.8469	-33.6155	384.3252	18.4872	-135.3788	-31.2469	397.2826	28.5482	397.9176	-25.0349	153.517	7.3401	325.3441	-0.0592	0.0182	-0.0073	-0.0462	0.0165	0.9585
37.86	-34.3692	401.6399	19.8705	-141.1194	-32.7452	415.1734	28.926	375.3298	-22.7581	144.6553	5.414	305.8005	-0.0592	0.0182	-0.0073	-0.0462	0.0165	0.9585
37.8731	-34.7615	420.1846	22.0028	-147.2787	-34.8133	433.7545	29.2171	353.4789	-20.6177	136.1295	3.6336	287.021	-0.0592	0.0182	-0.0073	-0.0462	0.0165	0.9585
37.8863	-34.8972	439.5166	24.9751	-153.7104	-37.5698	452.469	29.2525	331.3767	-18.6913	127.5453	2.127	268.2274	-0.0592	0.0182	-0.0073	-0.0462	0.0165	0.9585
37.8994	-34.8325	459.6529	28.695	-160.4424	-40.9319	471.2415	28.8246	308.1393	-16.981	118.5508	0.98396	248.7229	-0.0592	0.0182	-0.0073	-0.0462	0.0165	0.9585
